<svg height="512" width="512" xml:space="preserve" style="enable-background:new 0 0 512 512;" viewBox="0 0 512 512" y="0px" x="0px" id="Capa_1" version="1.1" xmlns:xlink="http://www.w3.org/1999/xlink" xmlns="http://www.w3.org/2000/svg">
<g>
	<path d="M449.476,203.238c8.893,23.996,13.751,49.95,13.751,77.039C463.227,402.731,363.948,502,241.482,502S19.737,402.731,19.737,280.276
		S119.015,58.553,241.482,58.553c17.351,0,34.236,1.993,50.44,5.761" style="fill:none;stroke:#000000;stroke-width:20;stroke-linecap:round;stroke-linejoin:round;stroke-miterlimit:10;"></path>
	<path d="M383.635,358.354c5.907-1.4,11.47-4.618,15.798-9.654c9.577-11.145,9.515-27.925-0.137-39.006
		c-11.499-13.201-31.549-13.718-43.717-1.551c-4.113,4.113-6.777,9.126-7.991,14.406c-2.174,9.452-9.72,16.772-19.159,19.008
		c-5.907,1.4-11.47,4.618-15.798,9.654c-9.577,11.145-9.515,27.925,0.137,39.006c11.499,13.201,31.549,13.718,43.717,1.551
		c4.113-4.113,6.777-9.126,7.991-14.406C366.651,367.91,374.197,360.59,383.635,358.354z" style="fill:none;stroke:#000000;stroke-width:20;stroke-linecap:round;stroke-linejoin:round;stroke-miterlimit:10;"></path>
	<path d="M171.612,194.446c5.907-1.4,11.47-4.618,15.798-9.654c9.577-11.145,9.515-27.925-0.137-39.006
		c-11.499-13.201-31.549-13.718-43.717-1.551c-4.113,4.113-6.777,9.126-7.991,14.406c-2.174,9.452-9.72,16.772-19.159,19.008
		c-5.907,1.4-11.47,4.618-15.798,9.654c-9.577,11.145-9.515,27.925,0.137,39.006c11.499,13.201,31.549,13.718,43.717,1.551
		c4.113-4.113,6.777-9.126,7.991-14.406C154.628,204.002,162.174,196.682,171.612,194.446z" style="fill:none;stroke:#000000;stroke-width:20;stroke-linecap:round;stroke-linejoin:round;stroke-miterlimit:10;"></path>
	<g>
		<path d="M227.505,449.654c-39.337,10.304-79.723-13.313-90.028-52.645c-3.261-12.447,4.187-25.18,16.635-28.441
			c12.448-3.261,25.183,4.186,28.444,16.633c3.793,14.479,18.66,23.172,33.14,19.379c12.448-3.261,25.183,4.186,28.444,16.633
			S239.953,446.394,227.505,449.654z" style="fill:none;stroke:#000000;stroke-width:20;stroke-linecap:round;stroke-linejoin:round;stroke-miterlimit:10;"></path>
	</g>
	<g>
		<path d="M318.211,261.283c-10.819,41.89-53.704,67.17-95.599,56.352c-13.258-3.423-21.229-16.945-17.806-30.201
			c3.424-13.256,16.946-21.227,30.204-17.804c15.422,3.982,31.208-5.324,35.191-20.744c3.424-13.256,16.946-21.227,30.204-17.804
			C313.662,234.505,321.634,248.027,318.211,261.283z" style="fill:none;stroke:#000000;stroke-width:20;stroke-linecap:round;stroke-linejoin:round;stroke-miterlimit:10;"></path>
	</g>
	
		<ellipse ry="30.285" rx="30.288" cy="308.827" cx="101.897" style="fill:none;stroke:#000000;stroke-width:20;stroke-linecap:round;stroke-linejoin:round;stroke-miterlimit:10;"></ellipse>
	
		<line y2="123.611" x2="234.194" y1="123.611" x1="234.194" style="fill:none;stroke:#000000;stroke-width:20;stroke-linecap:round;stroke-linejoin:round;stroke-miterlimit:10;"></line>
	
		<line y2="236.613" x2="196.673" y1="236.613" x1="196.673" style="fill:none;stroke:#000000;stroke-width:20;stroke-linecap:round;stroke-linejoin:round;stroke-miterlimit:10;"></line>
	
		<line y2="256.606" x2="388.601" y1="256.606" x1="388.601" style="fill:none;stroke:#000000;stroke-width:20;stroke-linecap:round;stroke-linejoin:round;stroke-miterlimit:10;"></line>
	
		<line y2="421.798" x2="287.168" y1="421.798" x1="287.168" style="fill:none;stroke:#000000;stroke-width:20;stroke-linecap:round;stroke-linejoin:round;stroke-miterlimit:10;"></line>
	<g>
		
			<ellipse ry="106.725" rx="106.736" cy="116.725" cx="385.528" style="fill:none;stroke:#000000;stroke-width:20;stroke-linecap:round;stroke-linejoin:round;stroke-miterlimit:10;"></ellipse>
		
			<polyline points="355.318,114.677 381.744,141.085 431.529,88.27" style="fill:none;stroke:#000000;stroke-width:20;stroke-linecap:round;stroke-linejoin:round;stroke-miterlimit:10;"></polyline>
	</g>
</g>















</svg>
